<?xml version="1.0" encoding="utf-8"?>
<!-- Generator: Adobe Illustrator 24.2.3, SVG Export Plug-In . SVG Version: 6.00 Build 0)  -->
<svg version="1.1" id="Layer_1" xmlns="http://www.w3.org/2000/svg" xmlns:xlink="http://www.w3.org/1999/xlink" x="0px" y="0px"
	 viewBox="0 0 78 52" style="enable-background:new 0 0 78 52;" xml:space="preserve">
<style type="text/css">
	.st0{fill:#5154FF;}
	.st1{fill:#3B3B3B;}
</style>
<path class="st0" d="M0.4,39.2V1h21.7v38.2H0.4z M21,25.5c0-1.5-0.4-2.7-1.2-3.7c-0.8-1-2-1.6-3.6-1.9v-0.1c1.3-0.2,2.2-0.7,2.9-1.6
	c0.7-0.9,1-1.9,1-3c0-1.6-0.6-2.8-1.9-3.7c-1.2-0.9-2.8-1.4-4.8-1.4H2.1v3.9h2.4v14.3H2.1V32h11.6c2.5,0,4.4-0.6,5.6-1.9
	C20.4,28.8,21,27.2,21,25.5z M15.4,16.3c0,0.7-0.2,1.4-0.7,1.9C14.2,18.7,13.3,19,12,19H9v-5.1h3.4c0.8,0,1.5,0.2,2.1,0.5
	C15.1,14.7,15.4,15.3,15.4,16.3z M16.1,25.3c0,1.9-1.2,2.8-3.7,2.8H9v-5.6h3.8C15,22.5,16.1,23.4,16.1,25.3z"/>
<path class="st0" d="M24.5,39.2V1h31.1v38.2H24.5z M51.6,13.9h2.7V10h-6.6l-7.3,13.6h-0.1L32.4,10h-6.5v3.9h2.7v14.3h-2.4V32H35
	v-3.9h-2.1v-8.8H33l6.2,10.9h1.9l5.8-10.5H47v8.4h-1.9V32h8.8v-3.9h-2.4V13.9z"/>
<path class="st0" d="M58.1,39.2V1h19.5v38.2H58.1z M76.2,25.3c0-1.9-0.5-3.2-1.4-4.1c-0.9-0.9-2-1.5-3.2-1.8
	c-1.2-0.3-2.2-0.6-3.1-0.8c-1-0.2-1.9-0.5-2.6-0.9c-0.8-0.4-1.2-1-1.2-1.9c0-0.8,0.3-1.3,0.9-1.7c0.6-0.3,1.4-0.5,2.3-0.5
	c0.5,0,1.1,0.1,1.7,0.2c0.6,0.1,1.2,0.4,1.7,0.8l0.3,2.6l3.6-0.3l-0.2-4.8c-0.7-0.7-1.7-1.3-3-1.8c-1.3-0.5-2.7-0.7-4.1-0.7
	c-2,0-3.8,0.5-5.5,1.5c-1.7,1-2.5,2.7-2.5,5.2c0,1.6,0.4,2.8,1.1,3.6c0.7,0.8,1.6,1.4,2.7,1.7c1.1,0.3,2.2,0.6,3.2,0.8
	c1.2,0.2,2.3,0.6,3.2,1c0.9,0.4,1.4,1.2,1.4,2.4c0,1.1-0.4,1.8-1.2,2.1c-0.8,0.3-1.7,0.4-2.9,0.4c-0.4,0-0.8,0-1.4-0.1
	c-0.5-0.1-1.2-0.3-2-0.7l0-2.7l-3.6-0.3L59.6,30c0.9,0.8,2,1.3,3.5,1.7c1.5,0.4,3,0.6,4.5,0.6c2.7,0,4.8-0.6,6.3-1.8
	C75.4,29.3,76.2,27.6,76.2,25.3z"/>
<path class="st1" d="M0.4,42h6.4c0.9,0,1.7,0,2.3,0.1c0.6,0.1,1,0.2,1.3,0.4c0.3,0.2,0.5,0.5,0.6,0.8c0.1,0.4,0.2,0.8,0.2,1.3V45
	c0,0.5-0.1,0.9-0.2,1.3c-0.1,0.4-0.3,0.7-0.7,0.9c-0.3,0.2-0.8,0.4-1.5,0.5l2.1,4H9.7l-2-3.9c-0.1,0-0.2,0-0.3,0c-0.1,0-0.2,0-0.3,0
	H1.6v3.9H0.4V42z M1.6,46.7h5.3c0.7,0,1.3,0,1.7-0.1c0.4-0.1,0.7-0.1,0.9-0.3c0.2-0.1,0.3-0.3,0.4-0.5C10,45.6,10,45.3,10,45v-0.3
	c0-0.4,0-0.7-0.1-0.9c-0.1-0.2-0.2-0.4-0.5-0.5c-0.2-0.1-0.6-0.2-1-0.2c-0.4,0-1-0.1-1.8-0.1h-5V46.7z"/>
<path class="st1" d="M18.7,51.8c-0.8,0-1.5,0-2.1-0.1c-0.6-0.1-1-0.2-1.4-0.5c-0.3-0.3-0.6-0.6-0.8-1.1c-0.2-0.5-0.2-1.2-0.2-2
	c0-0.8,0.1-1.5,0.2-2c0.2-0.5,0.4-0.9,0.8-1.1c0.3-0.3,0.8-0.4,1.4-0.5c0.6-0.1,1.2-0.1,2.1-0.1c0.8,0,1.5,0,2.1,0.1
	c0.6,0.1,1,0.3,1.4,0.5s0.6,0.6,0.8,1.1c0.2,0.5,0.2,1.1,0.2,2c0,0.8-0.1,1.5-0.2,2c-0.2,0.5-0.4,0.9-0.8,1.1
	c-0.3,0.3-0.8,0.4-1.4,0.5C20.2,51.7,19.5,51.8,18.7,51.8z M21.9,48c0-0.6,0-1.1-0.1-1.4c-0.1-0.4-0.2-0.6-0.4-0.8
	c-0.2-0.2-0.5-0.3-1-0.4c-0.4-0.1-1-0.1-1.8-0.1c-0.7,0-1.3,0-1.8,0.1c-0.4,0.1-0.8,0.2-1,0.4c-0.2,0.2-0.3,0.4-0.4,0.8
	c-0.1,0.4-0.1,0.8-0.1,1.4c0,0.6,0,1.1,0.1,1.5c0.1,0.4,0.2,0.7,0.4,0.8c0.2,0.2,0.5,0.3,1,0.4c0.4,0.1,1,0.1,1.8,0.1
	c0.7,0,1.3,0,1.8-0.1c0.4-0.1,0.8-0.2,1-0.4c0.2-0.2,0.3-0.5,0.4-0.8C21.9,49.1,21.9,48.6,21.9,48z"/>
<path class="st1" d="M26,51.6v-7.2h1.2v0.9c0.2-0.2,0.4-0.4,0.6-0.6c0.3-0.2,0.6-0.3,1-0.4c0.4-0.1,0.9-0.1,1.5-0.1
	c0.8,0,1.4,0.1,1.8,0.3c0.5,0.2,0.8,0.6,1.1,1.1c0.2-0.3,0.5-0.6,0.7-0.8c0.3-0.2,0.6-0.4,1.1-0.4c0.4-0.1,1-0.1,1.6-0.1
	c0.8,0,1.4,0.1,1.9,0.3c0.5,0.2,0.8,0.6,1,1.1c0.2,0.5,0.3,1.2,0.3,2v4h-1.2v-4c0-0.7-0.1-1.2-0.2-1.5c-0.1-0.3-0.4-0.6-0.7-0.7
	c-0.3-0.1-0.7-0.2-1.3-0.2c-1.1,0-1.8,0.2-2.3,0.5c-0.5,0.3-0.7,0.8-0.7,1.5v0c0,0.1,0,0.3,0,0.4v4h-1.2v-4c0-0.7-0.1-1.2-0.2-1.5
	c-0.1-0.3-0.4-0.6-0.7-0.7c-0.3-0.1-0.7-0.2-1.3-0.2c-1.1,0-1.8,0.2-2.3,0.5c-0.5,0.3-0.7,0.8-0.7,1.5v4.4H26z"/>
<path class="st1" d="M46.7,51.8c-0.9,0-1.6,0-2.1-0.1c-0.6-0.1-1-0.3-1.3-0.6c-0.3-0.3-0.4-0.8-0.4-1.4c0-0.7,0.1-1.1,0.4-1.4
	c0.3-0.3,0.7-0.5,1.2-0.6c0.6-0.1,1.3-0.1,2.2-0.1c0.7,0,1.4,0,1.8,0.1c0.5,0,0.9,0.1,1.3,0.2c0-0.6,0-1-0.1-1.3
	c-0.1-0.3-0.2-0.6-0.4-0.7c-0.2-0.2-0.5-0.3-0.8-0.3c-0.4,0-0.8-0.1-1.4-0.1c-0.7,0-1.2,0-1.6,0c-0.4,0-0.6,0.1-0.8,0.2
	c-0.2,0.1-0.3,0.2-0.3,0.3c0,0.1-0.1,0.3-0.1,0.6h-1.2c0-0.5,0.1-0.8,0.2-1.1c0.1-0.3,0.3-0.5,0.6-0.6c0.3-0.1,0.7-0.2,1.2-0.3
	c0.5-0.1,1.2-0.1,2-0.1c0.8,0,1.5,0.1,2,0.2c0.5,0.1,0.9,0.3,1.2,0.6c0.3,0.3,0.5,0.7,0.5,1.2c0.1,0.5,0.1,1.2,0.1,2v3.5h-1.2v-0.5
	c-0.1,0.2-0.3,0.3-0.6,0.4c-0.3,0.1-0.6,0.2-1,0.2C47.8,51.7,47.3,51.8,46.7,51.8z M46.7,50.8c0.7,0,1.3,0,1.7,0
	c0.4,0,0.7-0.1,1-0.1c0.2-0.1,0.4-0.2,0.4-0.4c0.1-0.2,0.1-0.4,0.1-0.7v-1.1l-3.2,0c-0.6,0-1,0-1.4,0c-0.3,0-0.6,0.1-0.8,0.2
	c-0.2,0.1-0.3,0.2-0.4,0.4c-0.1,0.2-0.1,0.4-0.1,0.7c0,0.3,0,0.5,0.1,0.6c0.1,0.2,0.2,0.3,0.4,0.4c0.2,0.1,0.4,0.1,0.8,0.1
	C45.6,50.8,46.1,50.8,46.7,50.8z"/>
<path class="st1" d="M54.1,51.6v-7.2h1.2v1c0.2-0.2,0.4-0.4,0.7-0.6c0.3-0.2,0.6-0.3,1.1-0.4c0.4-0.1,1-0.1,1.8-0.1
	c0.9,0,1.7,0.1,2.2,0.3c0.5,0.2,0.9,0.5,1.2,1c0.2,0.5,0.3,1.1,0.3,2v4.1h-1.2v-4.1c0-0.5,0-0.9-0.1-1.2c-0.1-0.3-0.2-0.5-0.4-0.7
	c-0.2-0.2-0.5-0.3-0.8-0.3c-0.4-0.1-0.8-0.1-1.4-0.1c-0.8,0-1.5,0.1-2,0.2c-0.5,0.1-0.8,0.4-1,0.7c-0.2,0.3-0.3,0.7-0.3,1.1v4.3
	H54.1z"/>
<path class="st1" d="M65.5,51.6v-6.8h1.2v6.8H65.5z M65.5,43.2V42h1.2v1.2H65.5z"/>
<path class="st1" d="M73.5,51.8c-0.9,0-1.6,0-2.1-0.1c-0.6-0.1-1-0.3-1.3-0.6c-0.3-0.3-0.4-0.8-0.4-1.4c0-0.7,0.1-1.1,0.4-1.4
	c0.3-0.3,0.7-0.5,1.2-0.6c0.6-0.1,1.3-0.1,2.2-0.1c0.7,0,1.4,0,1.8,0.1c0.5,0,0.9,0.1,1.3,0.2c0-0.6,0-1-0.1-1.3
	c-0.1-0.3-0.2-0.6-0.4-0.7c-0.2-0.2-0.5-0.3-0.8-0.3c-0.4,0-0.8-0.1-1.4-0.1c-0.7,0-1.2,0-1.6,0c-0.4,0-0.6,0.1-0.8,0.2
	c-0.2,0.1-0.3,0.2-0.3,0.3c0,0.1-0.1,0.3-0.1,0.6H70c0-0.5,0.1-0.8,0.2-1.1c0.1-0.3,0.3-0.5,0.6-0.6c0.3-0.1,0.7-0.2,1.2-0.3
	c0.5-0.1,1.2-0.1,2-0.1c0.8,0,1.5,0.1,2,0.2c0.5,0.1,0.9,0.3,1.2,0.6c0.3,0.3,0.5,0.7,0.5,1.2c0.1,0.5,0.1,1.2,0.1,2v3.5h-1.2v-0.5
	c-0.1,0.2-0.3,0.3-0.6,0.4c-0.3,0.1-0.6,0.2-1,0.2C74.7,51.7,74.1,51.8,73.5,51.8z M73.5,50.8c0.7,0,1.3,0,1.7,0s0.7-0.1,1-0.1
	c0.2-0.1,0.4-0.2,0.4-0.4c0.1-0.2,0.1-0.4,0.1-0.7v-1.1l-3.2,0c-0.6,0-1,0-1.4,0c-0.3,0-0.6,0.1-0.8,0.2c-0.2,0.1-0.3,0.2-0.4,0.4
	c-0.1,0.2-0.1,0.4-0.1,0.7c0,0.3,0,0.5,0.1,0.6c0.1,0.2,0.2,0.3,0.4,0.4c0.2,0.1,0.4,0.1,0.8,0.1C72.5,50.8,72.9,50.8,73.5,50.8z"/>
</svg>
